<?xml version="1.0" standalone="no"?>
<!DOCTYPE svg PUBLIC "-//W3C//DTD SVG 20010904//EN"
 "http://www.w3.org/TR/2001/REC-SVG-20010904/DTD/svg10.dtd">
<svg version="1.0" xmlns="http://www.w3.org/2000/svg"
 width="800.000000pt" height="320.000000pt" viewBox="0 0 800.000000 320.000000"
 preserveAspectRatio="xMidYMid meet">
<metadata>
Created by potrace 1.16, written by Peter Selinger 2001-2019
</metadata>
<g transform="translate(0.000000,320.000000) scale(0.100000,-0.100000)"
fill="#000000" stroke="none">
<path d="M3309 3118 c-39 -46 -86 -99 -103 -118 -17 -19 -56 -64 -86 -100 -30
-35 -62 -72 -70 -81 -8 -9 -24 -27 -35 -40 -41 -50 -130 -154 -135 -159 -3 -3
-37 -41 -75 -85 -39 -44 -72 -82 -75 -85 -3 -3 -30 -34 -60 -70 -30 -36 -61
-72 -70 -81 -8 -9 -24 -27 -35 -40 -110 -131 -145 -172 -225 -263 -116 -133
-126 -135 -201 -43 -28 34 -61 73 -73 87 -11 14 -41 50 -66 80 -25 30 -47 57
-50 60 -7 7 -178 215 -210 256 -22 28 -279 340 -518 629 -41 50 -84 95 -96
101 -15 8 -177 13 -547 15 -609 5 -569 11 -569 -89 0 -53 1 -55 82 -151 46
-53 99 -114 119 -136 20 -22 101 -114 180 -205 79 -91 146 -167 149 -170 3 -3
48 -54 100 -115 52 -60 97 -112 100 -115 3 -3 82 -93 175 -200 93 -107 176
-201 183 -209 7 -7 52 -59 100 -115 48 -55 92 -105 98 -111 5 -5 39 -44 75
-85 35 -41 67 -77 70 -80 3 -3 39 -43 78 -89 40 -46 77 -89 84 -96 35 -37 104
-120 114 -139 9 -16 12 -143 13 -499 0 -522 0 -520 57 -546 16 -7 165 -11 451
-11 l427 0 28 25 27 26 0 492 c1 367 4 497 13 514 15 26 107 127 352 388 11
11 76 81 145 155 69 74 136 147 150 161 27 29 73 78 250 269 63 68 153 163
200 212 l85 88 515 1 c283 1 1193 5 2022 8 l1506 6 21 24 c37 42 29 93 -26
163 -27 33 -68 86 -93 117 -178 227 -379 478 -401 502 l-27 29 -2025 0 -2026
0 -72 -82z"/>
<path d="M7005 2094 c-16 -12 -20 -25 -18 -72 7 -163 -72 -282 -233 -356 l-69
-31 -1418 -5 c-1390 -5 -1419 -5 -1433 -24 -12 -17 -14 -140 -14 -782 l0 -763
26 -20 c26 -21 37 -21 474 -21 l447 0 21 23 c22 23 22 27 22 394 0 284 3 373
13 381 8 7 346 14 987 20 629 7 995 14 1030 21 30 7 91 18 135 27 138 26 328
92 433 151 26 15 56 31 67 37 11 6 36 22 55 36 281 200 440 512 440 866 0 142
50 129 -487 131 -398 2 -461 1 -478 -13z"/>
</g>
</svg>
